<?xml version="1.0" encoding="utf-8"?>
<svg xmlns="http://www.w3.org/2000/svg" viewBox="0 0 50 50" width="100" height="100">
  <path d="M49.832031 24.445313L37.832031 6.445313C37.644531 6.167969 37.335938 6 37 6L13 6C12.664063 6 12.355469 6.167969 12.167969 6.445313L1.34375 22.683594L0.53125 23.878906C0.515625 23.898438 0.511719 23.929688 0.496094 23.953125L0.167969 24.445313C-0.0546875 24.78125 -0.0546875 25.21875 0.167969 25.554688L0.488281 26.035156C0.503906 26.058594 0.507813 26.085938 0.523438 26.109375L11.871094 43.109375L12.167969 43.554688C12.355469 43.832031 12.664063 44 13 44L37 44C37.335938 44 37.644531 43.832031 37.832031 43.554688L49.832031 25.554688C50.054688 25.21875 50.054688 24.78125 49.832031 24.445313 Z M 14.78125 10L35.355469 10L45.394531 25.003906L35.394531 40L14.605469 40L4.597656 25.007813Z" />
</svg>