<svg width="124" height="34" viewBox="0 0 124 34" fill="none" xmlns="http://www.w3.org/2000/svg">
<path fill-rule="evenodd" clip-rule="evenodd" d="M40.1567 9.05939C39.3805 9.05938 38.7501 9.68486 38.7461 10.4591V23.3775C38.7461 24.1998 39.4144 24.8663 40.2387 24.8663H40.2753C41.0991 24.8655 41.7665 24.1992 41.7665 23.3775V20.3707H45.1063C48.4094 20.3707 50.8424 17.8577 50.8424 14.7151C50.8424 11.5724 48.4108 9.05939 45.1297 9.05939H40.1567ZM41.7665 17.5685V11.847H44.9129C46.6296 11.847 47.8015 13.1255 47.8015 14.7078C47.8015 16.2901 46.6296 17.5685 44.9129 17.5685H41.7665Z" fill="black"/>
<path fill-rule="evenodd" clip-rule="evenodd" d="M55.3183 9.05939C54.5419 9.05937 53.9111 9.68463 53.9062 10.4591V23.3775C53.9062 24.1998 54.5745 24.8663 55.3989 24.8663H55.4355C56.2593 24.8655 56.9267 24.1992 56.9267 23.3775V20.115H60.5008L62.5398 24.0745C62.795 24.5702 63.3067 24.8821 63.8654 24.8824C64.3931 24.883 64.8818 24.6055 65.1505 24.1526C65.4193 23.6996 65.428 23.1387 65.1735 22.6777L63.259 19.2048C64.9831 18.2727 65.8956 16.4961 65.8956 14.6113C65.8956 11.2919 63.7292 9.05939 59.9207 9.05939H55.3183ZM56.9267 17.3303V11.869H59.6556C61.9231 11.869 62.8781 12.8873 62.8781 14.4696C62.8781 16.0519 62.1106 17.3303 59.6556 17.3303H56.9267Z" fill="black"/>
<path fill-rule="evenodd" clip-rule="evenodd" d="M76.8777 8.89872C72.3986 8.88475 68.7552 12.4931 68.7374 16.9607C68.728 19.1111 69.5774 21.1769 71.0978 22.7016C72.6182 24.2263 74.6846 25.0846 76.8407 25.087C81.3198 25.0934 84.9571 21.4789 84.9673 17.0113C84.9775 12.5437 81.3568 8.91269 76.8777 8.89872ZM76.8186 11.9114C79.6359 11.8935 81.9376 14.1507 81.9675 16.9607H81.966C81.973 18.3228 81.4367 19.6318 80.4753 20.5992C79.5139 21.5667 78.2063 22.1131 76.8407 22.1181C74.0233 22.1123 71.7407 19.8359 71.7347 17.0258C71.7286 14.2156 74.0013 11.9294 76.8186 11.9114Z" fill="black"/>
<path fill-rule="evenodd" clip-rule="evenodd" d="M90.5263 9.05942C91.004 9.05796 91.4534 9.28508 91.7348 9.67013L96.0471 15.6341L100.411 9.80601C100.771 9.33266 101.334 9.05608 101.93 9.05942C102.432 9.05942 102.915 9.2586 103.27 9.61316C103.626 9.96771 103.825 10.4486 103.825 10.95V23.3776C103.825 24.1998 103.157 24.8664 102.333 24.8664H102.296C101.472 24.8656 100.805 24.1992 100.805 23.3776V13.9057L97.0227 18.9945C96.7894 19.3099 96.4197 19.4962 96.0266 19.4962C95.6336 19.4962 95.2639 19.3099 95.0306 18.9945L91.3114 13.9685V23.3776C91.3114 24.1992 90.6441 24.8656 89.8203 24.8664H89.7836C89.3878 24.8664 89.0081 24.7095 88.7282 24.4303C88.4483 24.1511 88.291 23.7724 88.291 23.3776V11.2802C88.2959 10.0523 89.2952 9.05941 90.5263 9.05942Z" fill="black"/>
<path fill-rule="evenodd" clip-rule="evenodd" d="M115.293 8.90165C110.815 8.88742 107.172 12.4943 107.153 16.9607C107.144 19.1112 107.993 21.1769 109.514 22.7016C111.034 24.2263 113.101 25.0847 115.257 25.087C119.735 25.0926 123.37 21.4787 123.38 17.0123C123.39 12.5459 119.771 8.91589 115.293 8.90165ZM115.235 11.9115C118.052 11.8935 120.354 14.1507 120.383 16.9607C120.39 18.3229 119.853 19.632 118.892 20.5993C117.93 21.5667 116.622 22.1131 115.257 22.1181C112.439 22.1123 110.157 19.8359 110.151 17.0258C110.145 14.2156 112.417 11.9294 115.235 11.9115Z" fill="black"/>
<path fill-rule="evenodd" clip-rule="evenodd" d="M5.29585 0.45829L27.9959 14.2782H27.9856C28.9107 14.8417 29.4775 15.8425 29.4838 16.9237C29.49 18.0048 28.9349 19.0121 28.0164 19.5862L15.2726 27.5547C14.3242 28.1965 13.1 28.27 12.0812 27.7464C11.0624 27.2227 10.412 26.1856 10.3857 25.0427C10.3593 23.8999 10.9613 22.8341 11.9548 22.2643L14.505 20.6717L20.4155 16.9768L17.9605 15.4821L17.921 15.4573L10.4959 10.9368L6.79581 8.68392V19.0836C6.82034 20.2149 6.22928 21.2709 5.25091 21.8437C4.27253 22.4166 3.05999 22.4166 2.08161 21.8437C1.10324 21.2709 0.512175 20.2149 0.536715 19.0836V3.12176C0.535827 1.99277 1.14663 0.951416 2.13375 0.398966C3.12088 -0.153484 4.33025 -0.130795 5.29585 0.45829ZM0.726393 29.3965C1.23439 28.1728 2.43145 27.375 3.75927 27.375C5.57097 27.3766 7.03947 28.8406 7.04189 30.6477C7.04248 31.9721 6.24308 33.1664 5.01649 33.6737C3.78991 34.1809 2.37776 33.9011 1.43863 32.9649C0.499507 32.0286 0.218392 30.6202 0.726393 29.3965Z" fill="url(#paint0_linear_260_3260)"/>
<defs>
<linearGradient id="paint0_linear_260_3260" x1="0.478123" y1="33.9276" x2="29.4944" y2="33.9276" gradientUnits="userSpaceOnUse">
<stop stop-color="#FF3176"/>
<stop offset="1" stop-color="#FF7369"/>
</linearGradient>
</defs>
</svg>
